<svg xmlns="http://www.w3.org/2000/svg" width="98" height="99" viewBox="-2 -2 102 103" fill="currentColor">
  <path d="M 66.63 79.50 Q 66.63 79.50 50.35 79.50 Q 34.07 79.50 31.72 78.98 Q 29.36 78.47 27.02 76.24 Q 24.69 74.02 23.61 70.80 Q 22.53 67.57 22.52 58.52 Q 22.50 49.47 23.56 46.72 Q 24.62 43.98 27.37 41.81 Q 30.11 39.65 34.97 38.66 Q 39.82 37.68 45.85 27.69 Q 51.88 17.70 53.11 16.60 Q 54.35 15.51 56.06 15.52 Q 57.76 15.54 60.92 17.06 Q 64.09 18.59 65.79 22.16 Q 67.50 25.74 66.14 31.45 Q 64.78 37.16 65.45 37.76 Q 66.12 38.37 70.03 38.98 Q 73.94 39.60 75.57 40.68 Q 77.20 41.75 78.83 44.98 Q 80.46 48.21 80.46 50.52 Q 80.46 52.83 77.42 63.44 Q 74.37 74.05 70.62 76.76 Q 66.86 79.46 66.75 79.48 Q 66.63 79.50 66.63 79.50 Z M 66.70 74.80 Q 66.70 74.80 69.04 72.37 Q 71.38 69.93 73.92 59.56 Q 76.46 49.20 74.21 46.39 Q 71.96 43.58 66.66 43.03 Q 61.35 42.48 60.53 41.82 Q 59.71 41.17 61.09 35.84 Q 62.48 30.51 62.47 27.94 Q 62.46 25.37 60.79 23.04 Q 59.13 20.72 57.40 20.77 Q 55.67 20.83 50.47 30.01 Q 45.27 39.20 42.92 41.16 Q 40.57 43.12 40.55 56.00 Q 40.53 68.88 42.67 71.59 Q 44.80 74.30 45.96 74.86 Q 47.11 75.41 56.84 75.17 Q 66.56 74.93 66.63 74.87 Q 66.70 74.80 66.70 74.80 Z M 36.60 74.90 Q 36.60 74.90 37.05 74.15 Q 37.50 73.39 37.00 72.56 Q 36.50 71.73 36.49 57.92 Q 36.47 44.11 35.72 43.36 Q 34.98 42.61 31.83 44.21 Q 28.69 45.81 27.59 48.01 Q 26.50 50.21 27.01 60.04 Q 27.53 69.86 28.74 71.65 Q 29.96 73.44 32.05 74.46 Q 34.15 75.48 35.34 75.22 Q 36.53 74.97 36.56 74.94 Q 36.60 74.90 36.60 74.90 Z" fill-rule="evenodd"/>
</svg>