<svg xmlns="http://www.w3.org/2000/svg" width="98" height="99" viewBox="-2 -2 102 103" fill="currentColor">
  <path d="M 66.63 80.50 Q 66.63 80.50 50.07 80.50 Q 33.51 80.50 31.38 79.94 Q 29.24 79.39 26.56 76.87 Q 23.88 74.35 22.75 71.08 Q 21.61 67.82 21.55 58.76 Q 21.50 49.69 22.61 46.79 Q 23.72 43.89 26.83 41.26 Q 29.94 38.63 34.80 37.74 Q 39.66 36.84 45.21 27.31 Q 50.76 17.79 52.56 16.16 Q 54.37 14.53 57.62 15.07 Q 60.87 15.60 62.98 17.10 Q 65.10 18.60 66.79 22.13 Q 68.48 25.67 67.58 30.81 Q 66.67 35.96 72.06 38.45 Q 77.44 40.94 79.43 44.59 Q 81.43 48.24 81.45 50.46 Q 81.46 52.68 78.39 63.36 Q 75.32 74.04 73.35 76.08 Q 71.37 78.13 69.11 79.29 Q 66.86 80.46 66.74 80.48 Q 66.63 80.50 66.63 80.50 Z M 66.69 73.81 Q 66.69 73.81 68.58 71.85 Q 70.47 69.88 72.96 59.59 Q 75.45 49.30 73.72 46.94 Q 71.99 44.59 66.19 44.03 Q 60.39 43.48 59.59 42.87 Q 58.79 42.26 58.68 40.74 Q 58.57 39.22 60.02 34.95 Q 61.48 30.67 61.49 28.02 Q 61.50 25.37 60.34 23.56 Q 59.19 21.75 57.84 21.88 Q 56.49 22.01 51.42 30.54 Q 46.34 39.08 43.97 41.55 Q 41.59 44.02 41.56 56.32 Q 41.52 68.61 42.15 69.95 Q 42.78 71.28 44.96 72.86 Q 47.15 74.44 56.85 74.19 Q 66.56 73.94 66.63 73.87 Q 66.69 73.81 66.69 73.81 Z M 35.58 73.92 Q 35.58 73.92 35.99 73.47 Q 36.39 73.02 35.95 72.44 Q 35.50 71.85 35.49 58.97 Q 35.48 46.08 34.65 45.30 Q 33.81 44.51 32.54 44.87 Q 31.27 45.23 29.39 47.67 Q 27.51 50.10 27.51 57.47 Q 27.51 64.85 28.11 67.53 Q 28.72 70.22 30.35 71.84 Q 31.98 73.46 33.75 73.71 Q 35.53 73.97 35.56 73.94 Q 35.58 73.92 35.58 73.92 Z" fill-rule="evenodd"/>
</svg>